name rise31.4854peak64.571fall78.6902.mot
datacolumns 19
datarows 29
range 22.92824600000000 22.97492800000000
endheader
time	ground_force1_vx	ground_force1_vy	ground_force1_vz	ground_force1_px	ground_force1_py	ground_force1_pz	ground_force2_vx	ground_force2_vy	ground_force2_vz	ground_force2_px	ground_force2_py	ground_force2_pz	ground_torque1_x	ground_torque1_y	ground_torque1_z	ground_torque2_x	ground_torque2_y	ground_torque2_z	
22.92824600000000	-47.38723900000000	800.71588499999996	58.68578700000000	0.10241700000000	0.00000000000000	0.10678800000000	-9.40571500000000	39.30854600000000	8.01423600000000	0.33156800000000	0.00000000000000	-0.07744800000000	0.00000000000000	21.00441700000000	0.00000000000000	0.00000000000000	4.26376600000000	0.00000000000000	
22.92991400000000	-47.61286200000000	797.78017599999998	58.42716000000000	0.10180400000000	0.00000000000000	0.10673900000000	-10.43558600000000	45.60331000000000	9.07492100000000	0.33557000000000	0.00000000000000	-0.07787900000000	0.00000000000000	20.89749100000000	0.00000000000000	0.00000000000000	4.90414400000000	0.00000000000000	
22.93158200000000	-47.85010400000000	794.74510499999997	58.14436900000000	0.10120900000000	0.00000000000000	0.10668600000000	-11.32106800000000	51.85806300000000	10.06204600000000	0.33943800000000	0.00000000000000	-0.07827300000000	0.00000000000000	20.79178600000000	0.00000000000000	0.00000000000000	5.52377900000000	0.00000000000000	
22.93325000000000	-48.09948800000000	791.61208899999997	57.83744800000000	0.10063200000000	0.00000000000000	0.10663000000000	-12.03725500000000	57.98428100000000	10.95476000000000	0.34317300000000	0.00000000000000	-0.07863600000000	0.00000000000000	20.68746600000000	0.00000000000000	0.00000000000000	6.11052500000000	0.00000000000000	
22.93492300000000	-48.36150800000000	788.38253799999995	57.50647600000000	0.10007300000000	0.00000000000000	0.10656900000000	-12.56875600000000	63.91873700000000	11.73886800000000	0.34677900000000	0.00000000000000	-0.07897300000000	0.00000000000000	20.58468100000000	0.00000000000000	0.00000000000000	6.65527900000000	0.00000000000000	
22.93657900000000	-48.63662400000000	785.05784800000004	57.15157500000000	0.09953100000000	0.00000000000000	0.10650500000000	-12.90964600000000	69.62504800000001	12.40697500000000	0.35025700000000	0.00000000000000	-0.07928700000000	0.00000000000000	20.48357100000000	0.00000000000000	0.00000000000000	7.15222500000000	0.00000000000000	
22.93824500000000	-48.92526000000000	781.63939200000004	56.77291300000000	0.09900700000000	0.00000000000000	0.10643700000000	-13.06264800000000	75.09276500000000	12.95805500000000	0.35360900000000	0.00000000000000	-0.07958300000000	0.00000000000000	20.38426200000000	0.00000000000000	0.00000000000000	7.59877700000000	0.00000000000000	
22.93992900000000	-49.22779800000000	778.12850700000001	56.37069900000000	0.09849900000000	0.00000000000000	0.10636500000000	-13.03774900000000	80.33447300000000	13.39656500000000	0.35683600000000	0.00000000000000	-0.07986300000000	0.00000000000000	20.28686500000000	0.00000000000000	0.00000000000000	7.99526100000000	0.00000000000000	
22.94157900000000	-49.54457800000000	774.52648499999998	55.94518300000000	0.09800900000000	0.00000000000000	0.10628900000000	-12.85045100000000	85.38150500000000	13.73126300000000	0.35993900000000	0.00000000000000	-0.08013000000000	0.00000000000000	20.19148100000000	0.00000000000000	0.00000000000000	8.34440900000000	0.00000000000000	
22.94325100000000	-49.87589200000000	770.83456699999999	55.49665900000000	0.09753400000000	0.00000000000000	0.10620800000000	-12.51987600000000	90.27884700000000	13.97387600000000	0.36291900000000	0.00000000000000	-0.08038700000000	0.00000000000000	20.09819300000000	0.00000000000000	0.00000000000000	8.65073400000000	0.00000000000000	
22.94492200000000	-50.22197900000000	767.05392900000004	55.02545600000000	0.09707400000000	0.00000000000000	0.10612400000000	-12.06690000000000	95.07980800000000	14.13775500000000	0.36577700000000	0.00000000000000	-0.08063500000000	0.00000000000000	20.00707200000000	0.00000000000000	0.00000000000000	8.91986600000000	0.00000000000000	
22.94658000000000	-50.58302600000000	763.18567900000005	54.53194600000000	0.09662900000000	0.00000000000000	0.10603500000000	-11.51246200000000	99.84092300000000	14.23663100000000	0.36851400000000	0.00000000000000	-0.08087600000000	0.00000000000000	19.91817300000000	0.00000000000000	0.00000000000000	9.15790800000000	0.00000000000000	
22.94824500000000	-50.95915700000000	759.23084200000005	54.01653300000000	0.09619800000000	0.00000000000000	0.10594300000000	-10.87615500000000	104.61746100000001	14.28355000000000	0.37113000000000	0.00000000000000	-0.08111100000000	0.00000000000000	19.83153600000000	0.00000000000000	0.00000000000000	9.37085100000000	0.00000000000000	
22.94992600000000	-51.35043800000000	755.19035899999994	53.47965800000000	0.09578000000000	0.00000000000000	0.10584600000000	-10.17516500000000	109.45977000000001	14.29004300000000	0.37362700000000	0.00000000000000	-0.08134200000000	0.00000000000000	19.74718800000000	0.00000000000000	0.00000000000000	9.56410800000000	0.00000000000000	
22.95158500000000	-51.75686600000000	751.06507599999998	52.92179700000000	0.09537300000000	0.00000000000000	0.10574600000000	-9.42356500000000	114.41062300000000	14.26555500000000	0.37600600000000	0.00000000000000	-0.08157000000000	0.00000000000000	19.66513900000000	0.00000000000000	0.00000000000000	9.74215800000000	0.00000000000000	
22.95324800000000	-52.17836900000000	746.85573699999998	52.34345400000000	0.09497700000000	0.00000000000000	0.10564100000000	-8.63197500000000	119.50355500000001	14.21712700000000	0.37826700000000	0.00000000000000	-0.08179600000000	0.00000000000000	19.58538400000000	0.00000000000000	0.00000000000000	9.90833100000000	0.00000000000000	
22.95492900000000	-52.61480300000000	742.56298200000003	51.74516800000000	0.09459000000000	0.00000000000000	0.10553300000000	-7.80753300000000	124.76217300000000	14.14931900000000	0.38041200000000	0.00000000000000	-0.08201900000000	0.00000000000000	19.50790300000000	0.00000000000000	0.00000000000000	10.06471800000000	0.00000000000000	
22.95658200000000	-53.06594700000000	738.18733599999996	51.12750100000000	0.09421100000000	0.00000000000000	0.10542100000000	-6.95413000000000	130.20028700000000	14.06431900000000	0.38244100000000	0.00000000000000	-0.08224200000000	0.00000000000000	19.43266200000000	0.00000000000000	0.00000000000000	10.21218900000000	0.00000000000000	
22.95825200000000	-53.53149900000000	733.72920899999997	50.49104700000000	0.09384000000000	0.00000000000000	0.10530500000000	-6.07284100000000	135.82272100000000	13.96222400000000	0.38435700000000	0.00000000000000	-0.08246400000000	0.00000000000000	19.35961200000000	0.00000000000000	0.00000000000000	10.35050300000000	0.00000000000000	
22.95992600000000	-54.01107800000000	729.18889200000001	49.83642200000000	0.09347400000000	0.00000000000000	0.10518500000000	-5.16248800000000	141.62660199999999	13.84140600000000	0.38616100000000	0.00000000000000	-0.08268600000000	0.00000000000000	19.28868800000000	0.00000000000000	0.00000000000000	10.47848500000000	0.00000000000000	
22.96157600000000	-54.50421300000000	724.56655100000000	49.16426400000000	0.09311200000000	0.00000000000000	0.10506200000000	-4.22025700000000	147.60295700000000	13.69895800000000	0.38785500000000	0.00000000000000	-0.08290900000000	0.00000000000000	19.21981200000000	0.00000000000000	0.00000000000000	10.59424600000000	0.00000000000000	
22.96324900000000	-55.01035000000000	719.86222399999997	48.47523600000000	0.09275200000000	0.00000000000000	0.10493600000000	-3.24233400000000	153.73842900000000	13.53113500000000	0.38943900000000	0.00000000000000	-0.08313200000000	0.00000000000000	19.15289100000000	0.00000000000000	0.00000000000000	10.69541800000000	0.00000000000000	
22.96493000000000	-55.52884300000000	715.07582600000001	47.77001600000000	0.09239400000000	0.00000000000000	0.10480600000000	-2.22448500000000	160.01696899999999	13.33379100000000	0.39091600000000	0.00000000000000	-0.08335600000000	0.00000000000000	19.08781800000000	0.00000000000000	0.00000000000000	10.77938500000000	0.00000000000000	
22.96657900000000	-56.05895500000000	710.20714099999998	47.04930400000000	0.09203600000000	0.00000000000000	0.10467300000000	-1.16256400000000	166.42138299999999	13.10275200000000	0.39228800000000	0.00000000000000	-0.08358100000000	0.00000000000000	19.02447400000000	0.00000000000000	0.00000000000000	10.84349700000000	0.00000000000000	
22.96824800000000	-56.59985600000000	705.25582699999995	46.31381400000000	0.09167600000000	0.00000000000000	0.10453700000000	-0.05292300000000	172.93464700000001	12.83414200000000	0.39355600000000	0.00000000000000	-0.08380600000000	0.00000000000000	18.96272300000000	0.00000000000000	0.00000000000000	10.88524800000000	0.00000000000000	
22.96992300000000	-57.15062300000000	700.22141599999998	45.56427400000000	0.09131300000000	0.00000000000000	0.10439800000000	1.10729100000000	179.54093800000001	12.52461100000000	0.39472400000000	0.00000000000000	-0.08403300000000	0.00000000000000	18.90241900000000	0.00000000000000	0.00000000000000	10.90241900000000	0.00000000000000	
22.97157900000000	-57.71023500000000	695.10331799999994	44.80142700000000	0.09094500000000	0.00000000000000	0.10425600000000	2.31995700000000	186.22635800000000	12.17149700000000	0.39579200000000	0.00000000000000	-0.08426100000000	0.00000000000000	18.84340200000000	0.00000000000000	0.00000000000000	10.89317400000000	0.00000000000000	
22.97325100000000	-58.27758100000000	689.90082399999994	44.02602300000000	0.09057100000000	0.00000000000000	0.10411100000000	3.58589400000000	192.97936999999999	11.77291100000000	0.39676500000000	0.00000000000000	-0.08449000000000	0.00000000000000	18.78549900000000	0.00000000000000	0.00000000000000	10.85611700000000	0.00000000000000	
22.97492800000000	-58.85145300000000	684.61311200000000	43.23882700000000	0.09019000000000	0.00000000000000	0.10396400000000	4.90486800000000	199.79094900000001	11.32774900000000	0.39764300000000	0.00000000000000	-0.08471900000000	0.00000000000000	18.72852700000000	0.00000000000000	0.00000000000000	10.79031000000000	0.00000000000000	
